<svg width="102" height="98" viewBox="0 0 102 98" fill="none">
<path d="M34.6538 96.1538C52.688 96.1538 67.3076 81.5342 67.3076 63.5C67.3076 45.4658 52.688 30.8462 34.6538 30.8462C16.6196 30.8462 2 45.4658 2 63.5C2 81.5342 16.6196 96.1538 34.6538 96.1538Z" stroke="#222222" stroke-width="2.4"/>
<path d="M67.3453 96.1538C85.3795 96.1538 99.9991 81.5342 99.9991 63.5C99.9991 45.4658 85.3795 30.8462 67.3453 30.8462C49.3111 30.8462 34.6915 45.4658 34.6915 63.5C34.6915 81.5342 49.3111 96.1538 67.3453 96.1538Z" stroke="#222222" stroke-width="2.4"/>
<path d="M51.0015 67.3076C69.0357 67.3076 83.6553 52.688 83.6553 34.6538C83.6553 16.6196 69.0357 2 51.0015 2C32.9673 2 18.3477 16.6196 18.3477 34.6538C18.3477 52.688 32.9673 67.3076 51.0015 67.3076Z" stroke="#222222" stroke-width="2.4"/>
<path fill-rule="evenodd" clip-rule="evenodd" d="M34.6602 62.9752C39.4678 65.7553 45.0492 67.3465 51.0022 67.3465C56.9552 67.3465 62.5365 65.7553 67.3442 62.9752C67.1571 51.0943 60.6323 40.7524 51.0022 35.1816C41.372 40.7524 34.8472 51.0943 34.6602 62.9752Z" fill="#222222"/>
</svg>
